<?xml version="1.0" standalone="no"?>
<!DOCTYPE svg PUBLIC "-//W3C//DTD SVG 20010904//EN"
 "http://www.w3.org/TR/2001/REC-SVG-20010904/DTD/svg10.dtd">
<svg version="1.0" xmlns="http://www.w3.org/2000/svg"
 width="512.000000pt" height="512.000000pt" viewBox="0 0 512.000000 512.000000"
 preserveAspectRatio="xMidYMid meet">

<g transform="translate(0.000000,512.000000) scale(0.100000,-0.100000)"
fill="#FFFFFF" stroke="none">
<path d="M1810 5084 c-153 -138 -371 -493 -449 -729 -85 -258 -94 -528 -24
-749 74 -236 147 -342 432 -626 321 -319 455 -487 552 -694 61 -131 83 -231
76 -343 -6 -87 -5 -94 17 -120 38 -43 77 -37 171 28 101 69 278 239 351 336
156 207 226 433 195 633 -35 225 -139 384 -416 640 -485 448 -748 838 -795
1181 -14 98 -7 190 22 310 25 100 20 132 -22 154 -44 23 -66 19 -110 -21z
m-51 -508 c24 -171 109 -366 252 -580 145 -216 322 -412 670 -742 166 -158
245 -285 277 -445 14 -75 14 -91 0 -174 -28 -169 -130 -338 -299 -500 l-83
-79 -22 90 c-52 206 -174 420 -374 654 -36 41 -166 176 -290 300 -185 185
-235 241 -279 313 -220 359 -199 771 62 1205 71 118 63 122 86 -42z"/>
<path d="M2300 2985 l0 -85 85 0 85 0 0 85 0 85 -85 0 -85 0 0 -85z"/>
<path d="M2560 2735 l0 -85 85 0 85 0 0 85 0 85 -85 0 -85 0 0 -85z"/>
<path d="M2505 5096 c-13 -13 -26 -41 -30 -62 -13 -84 -29 -125 -62 -164 -44
-51 -99 -80 -176 -90 -74 -11 -101 -34 -101 -86 0 -50 35 -79 107 -88 121 -15
208 -102 228 -227 13 -79 37 -109 89 -109 52 0 76 30 89 109 21 127 108 213
232 227 70 8 103 36 103 89 0 51 -28 74 -101 85 -69 9 -127 36 -165 77 -33 35
-67 109 -68 146 0 39 -25 94 -48 106 -33 18 -71 13 -97 -13z m99 -365 l38 -39
-41 -41 -41 -41 -41 41 -41 41 38 39 c21 21 41 39 44 39 3 0 23 -18 44 -39z"/>
<path d="M3368 5104 c-38 -20 -44 -55 -23 -136 35 -134 8 -257 -86 -395 -47
-69 -200 -225 -295 -298 -164 -130 -224 -226 -232 -370 -5 -99 11 -163 65
-254 81 -136 291 -321 365 -321 46 0 78 34 78 81 0 56 26 130 71 200 52 80
198 231 306 316 147 115 218 219 248 360 19 87 19 127 -1 221 -31 151 -131
322 -279 479 -122 130 -158 150 -217 117z m211 -374 c90 -128 141 -293 122
-396 -21 -109 -63 -170 -192 -274 -186 -151 -336 -322 -390 -445 -11 -25 -24
-45 -29 -45 -18 0 -131 136 -160 193 -34 68 -39 129 -15 196 22 64 48 94 153
178 264 213 409 412 456 626 4 15 8 27 10 27 2 0 22 -27 45 -60z"/>
<path d="M4297 4259 c-121 -29 -196 -124 -197 -247 0 -75 15 -116 67 -172 49
-56 109 -82 185 -82 209 0 330 239 204 405 -57 76 -171 118 -259 96z m87 -173
c44 -18 63 -64 46 -106 -35 -84 -160 -60 -160 30 0 42 29 76 78 89 1 1 17 -5
36 -13z"/>
<path d="M3500 3415 l0 -85 85 0 85 0 0 85 0 85 -85 0 -85 0 0 -85z"/>
<path d="M745 3386 c-98 -45 -152 -138 -143 -249 8 -97 52 -163 142 -210 57
-30 165 -30 221 0 110 58 163 174 135 292 -37 154 -210 235 -355 167z m156
-159 c21 -16 39 -51 39 -77 0 -30 -53 -80 -83 -80 -41 0 -87 46 -87 86 0 65
81 109 131 71z"/>
<path d="M4219 3227 c-23 -17 -39 -52 -39 -83 0 -49 -23 -105 -63 -150 -47
-53 -100 -82 -164 -90 -62 -7 -88 -20 -102 -51 -18 -39 -13 -63 18 -94 21 -21
39 -29 63 -29 127 0 248 -121 248 -248 0 -45 46 -92 90 -92 40 0 80 39 80 78
0 124 100 241 222 258 91 12 118 34 118 94 0 40 -39 80 -78 80 -136 0 -262
126 -262 262 0 59 -84 101 -131 65z m90 -453 l-42 -43 -42 42 -43 42 41 43 41
42 43 -42 43 -42 -41 -42z"/>
<path d="M1280 2735 l0 -85 85 0 85 0 0 85 0 85 -85 0 -85 0 0 -85z"/>
<path d="M1413 2380 c-28 -11 -39 -34 -48 -95 -10 -68 -26 -104 -66 -150 -39
-44 -119 -85 -166 -85 -52 0 -83 -17 -98 -54 -27 -65 9 -110 96 -120 122 -15
209 -100 230 -226 14 -80 38 -110 89 -110 52 0 79 32 90 107 10 71 28 109 71
152 44 44 98 70 164 77 45 6 60 12 81 37 20 24 24 37 20 61 -10 47 -36 66
-103 76 -137 19 -214 97 -234 234 -12 88 -58 123 -126 96z m79 -461 l-40 -41
-42 42 -42 42 42 43 42 43 40 -44 41 -44 -41 -41z"/>
<path d="M3500 2305 l0 -85 85 0 85 0 0 85 0 85 -85 0 -85 0 0 -85z"/>
<path d="M510 1875 l0 -85 85 0 85 0 0 85 0 85 -85 0 -85 0 0 -85z"/>
<path d="M3069 1946 c-56 -20 -103 -61 -135 -118 -25 -45 -29 -64 -28 -123 0
-78 16 -119 68 -173 156 -166 436 -55 436 172 0 145 -109 256 -250 255 -30 0
-71 -6 -91 -13z m146 -181 c75 -74 -31 -192 -109 -122 -40 34 -43 77 -11 115
34 41 84 44 120 7z"/>
<path d="M2137 1533 c-4 -3 -7 -42 -7 -85 l0 -78 85 0 85 0 0 85 0 85 -78 0
c-43 0 -82 -3 -85 -7z"/>
<path d="M199 1341 l-24 -19 -3 -406 -3 -406 -54 0 c-110 0 -115 -11 -115
-260 l0 -192 29 -29 29 -29 1097 0 1096 0 23 23 c16 16 26 41 31 78 9 71 25
107 66 154 99 112 279 112 378 0 41 -47 58 -86 67 -155 5 -36 15 -62 30 -77
l23 -23 1096 0 1097 0 29 29 29 29 0 192 c0 249 -5 260 -116 260 l-54 0 0 400
0 401 -25 24 c-31 31 -63 32 -308 5 -840 -95 -1509 -247 -1884 -430 -161 -79
-188 -80 -322 -11 -367 187 -1044 344 -1908 441 -231 25 -274 26 -304 1z m458
-191 c590 -75 1048 -170 1413 -295 74 -26 140 -50 148 -54 10 -6 -2 -16 -40
-36 -94 -48 -178 -123 -239 -211 l-30 -44 -784 0 -785 0 0 85 0 85 513 2 512
3 3 83 3 82 -516 0 -515 0 0 165 0 165 40 0 c22 0 146 -14 277 -30z m4123
-135 l0 -165 -515 0 -516 0 3 -82 3 -83 513 -3 512 -2 0 -85 0 -85 -785 0
-784 0 -31 45 c-63 91 -185 194 -267 226 l-28 11 27 14 c49 26 321 111 484
152 298 75 633 136 1024 186 238 31 253 32 313 34 l47 2 0 -165z m-2058 -349
c139 -30 257 -114 337 -241 23 -35 50 -69 60 -75 13 -6 213 -10 585 -10 l566
0 0 -85 0 -85 -646 2 -647 3 -12 42 c-31 105 -120 203 -233 256 -62 30 -75 32
-172 32 -97 0 -110 -2 -172 -32 -113 -53 -202 -151 -233 -256 l-12 -42 -647
-3 -646 -2 0 85 0 85 566 0 c363 0 572 4 584 10 11 6 39 41 63 78 24 37 59 82
78 101 67 67 171 121 269 140 71 14 239 12 312 -3z m-2042 -411 l0 -85 -255 0
-255 0 0 85 0 85 255 0 255 0 0 -85z m4270 0 l0 -85 -255 0 -255 0 0 85 0 85
255 0 255 0 0 -85z"/>
<path d="M3412 768 l3 -83 83 -3 82 -3 0 86 0 85 -85 0 -86 0 3 -82z"/>
</g>
</svg>
