<?xml version="1.0" standalone="no"?>
<!DOCTYPE svg PUBLIC "-//W3C//DTD SVG 20010904//EN"
 "http://www.w3.org/TR/2001/REC-SVG-20010904/DTD/svg10.dtd">
<svg version="1.0" xmlns="http://www.w3.org/2000/svg"
 width="512.000000pt" height="512.000000pt" viewBox="0 0 512.000000 512.000000"
 preserveAspectRatio="xMidYMid meet">

<g transform="translate(0.000000,512.000000) scale(0.100000,-0.100000)"
fill="#FFFFFF" stroke="none">
<path d="M1409 4479 c-618 -353 -1140 -657 -1159 -676 l-35 -33 0 -1210 0
-1210 35 -33 c50 -49 2275 -1317 2310 -1317 35 0 2260 1268 2310 1317 l35 33
0 1210 0 1210 -35 33 c-50 49 -2275 1317 -2310 1317 -18 0 -421 -225 -1151
-641z m1638 -362 l482 -702 -484 -3 c-267 -1 -703 -1 -970 0 l-484 3 482 702
c265 386 484 702 487 702 3 0 222 -316 487 -702z m-865 536 c-10 -16 -198
-289 -417 -608 -218 -319 -403 -586 -410 -593 -10 -11 -82 15 -391 138 -208
84 -383 154 -387 157 -8 5 1597 930 1616 932 5 1 0 -11 -11 -26z m1557 -437
c447 -255 809 -466 804 -469 -4 -3 -179 -73 -387 -157 -309 -123 -381 -149
-391 -138 -7 7 -187 267 -400 578 -481 700 -447 650 -442 650 3 0 370 -209
816 -464z m-2892 -809 c211 -84 383 -154 383 -157 0 -3 -180 -329 -400 -725
l-400 -720 0 884 c0 837 1 883 18 877 9 -4 189 -75 399 -159z m3843 -719 l0
-883 -23 40 c-72 126 -767 1383 -771 1395 -5 12 80 49 387 172 215 86 395 157
400 158 4 0 7 -397 7 -882z m-1192 413 c-201 -371 -934 -1700 -938 -1700 -4 0
-737 1329 -938 1700 l-54 99 992 0 992 0 -54 -99z m-1617 -914 c350 -636 481
-883 470 -884 -26 -4 -1839 172 -1846 179 -8 8 876 1600 884 1593 3 -4 224
-403 492 -888z m2303 90 c241 -434 435 -792 431 -795 -6 -6 -1773 -181 -1837
-182 -28 0 -32 -8 834 1563 66 120 124 215 128 210 4 -4 204 -363 444 -796z
m-2546 -1122 c436 -41 797 -75 802 -75 6 0 10 -145 10 -391 0 -325 -2 -390
-14 -386 -14 6 -1542 877 -1591 908 -17 10 -23 19 -15 19 9 0 372 -34 808 -75z
m2637 56 c-49 -31 -1577 -902 -1591 -908 -12 -4 -14 61 -14 384 l0 390 243 23
c133 12 485 46 782 75 297 29 556 53 575 54 l35 1 -30 -19z"/>
</g>
</svg>
