<?xml version="1.0" standalone="no"?>
<!DOCTYPE svg PUBLIC "-//W3C//DTD SVG 20010904//EN"
 "http://www.w3.org/TR/2001/REC-SVG-20010904/DTD/svg10.dtd">
<svg version="1.0" xmlns="http://www.w3.org/2000/svg"
 width="512.000000pt" height="512.000000pt" viewBox="0 0 512.000000 512.000000"
 preserveAspectRatio="xMidYMid meet">

<g transform="translate(0.000000,512.000000) scale(0.100000,-0.100000)"
fill="#FFFFFF" stroke="none">
<path d="M4185 5010 c-407 -59 -753 -113 -768 -121 -18 -8 -414 -478 -1020
-1209 -544 -657 -993 -1198 -997 -1203 -3 -4 -26 -1 -50 8 -106 37 -236 27
-344 -27 -44 -22 -98 -68 -199 -167 -77 -75 -145 -148 -153 -163 -18 -35 -18
-102 0 -136 8 -15 89 -101 180 -192 l166 -165 -242 -242 c-225 -225 -245 -243
-278 -243 -69 0 -166 -21 -226 -49 -119 -56 -218 -186 -244 -320 -13 -69 -13
-343 0 -412 34 -180 179 -325 359 -359 69 -13 343 -13 412 0 134 26 264 125
320 244 28 60 49 157 49 226 0 33 18 53 243 278 l242 242 165 -166 c91 -91
177 -172 192 -180 34 -18 101 -18 136 0 15 8 88 76 163 153 105 107 143 153
167 203 55 113 65 233 27 339 -8 25 -12 48 -8 51 5 4 546 453 1204 998 1006
834 1199 998 1212 1029 8 21 63 380 123 798 l108 760 -23 47 c-25 53 -83 89
-142 87 -19 -1 -367 -49 -774 -109z m604 -237 c0 -10 -39 -287 -87 -615 l-87
-597 -1159 -961 c-637 -528 -1163 -963 -1168 -966 -6 -4 -59 42 -119 102
l-109 109 880 880 c640 640 884 891 895 919 24 57 12 109 -35 156 -47 47 -99
59 -156 35 -28 -11 -279 -255 -919 -895 l-880 -880 -109 109 c-60 60 -106 113
-102 119 3 5 438 531 966 1168 l961 1159 592 86 c326 48 602 87 615 88 15 1
22 -5 21 -16z m-3515 -2583 c27 -13 191 -170 478 -457 375 -377 438 -444 449
-480 19 -65 1 -111 -76 -191 l-64 -67 -533 532 -533 533 55 55 c58 58 119 95
159 95 14 0 43 -9 65 -20z m46 -875 l105 -105 -213 -213 -212 -212 -107 108
-108 107 210 210 c115 115 212 210 215 210 3 0 52 -47 110 -105z m-638 -632
c167 -167 168 -168 168 -212 0 -67 -33 -126 -84 -150 -37 -18 -61 -21 -195
-21 -178 0 -216 12 -251 80 -17 34 -20 59 -20 191 0 134 3 158 21 195 24 51
82 84 149 84 45 0 45 -1 212 -167z"/>
</g>
</svg>
