<?xml version="1.0" standalone="no"?>
<!DOCTYPE svg PUBLIC "-//W3C//DTD SVG 20010904//EN"
 "http://www.w3.org/TR/2001/REC-SVG-20010904/DTD/svg10.dtd">
<svg version="1.0" xmlns="http://www.w3.org/2000/svg"
 width="612.000000pt" height="512.000000pt" viewBox="0 0 512.000000 512.000000"
 preserveAspectRatio="xMidYMid meet">

<g transform="translate(0.000000,512.000000) scale(0.100000,-0.100000)"
fill="#FFFFFF" stroke="none">
<path d="M2423 4981 c-423 -145 -464 -163 -516 -237 -15 -22 -118 -227 -227
-454 -110 -227 -203 -417 -207 -421 -4 -4 -262 -105 -573 -224 -311 -119 -584
-225 -607 -235 -49 -21 -73 -61 -73 -120 0 -32 7 -48 34 -78 l34 -37 412 -3
c385 -2 411 -4 404 -20 -4 -9 -9 -62 -12 -117 -4 -91 2 -135 23 -187 7 -17 -9
-18 -246 -18 -234 0 -256 -2 -283 -19 -16 -11 -35 -30 -42 -43 -16 -29 -18
-92 -3 -121 6 -12 155 -167 332 -344 l321 -322 -115 -54 c-63 -29 -214 -100
-336 -157 -266 -123 -334 -170 -410 -282 -87 -129 -96 -171 -101 -455 -3 -208
-1 -245 13 -272 23 -45 70 -71 128 -71 l47 0 0 -282 c0 -274 1 -284 23 -322
14 -25 39 -48 66 -63 l45 -23 1750 2 1751 3 57 28 c65 32 121 89 152 156 20
43 21 65 24 324 2 178 -1 296 -8 331 -14 69 -60 138 -122 184 l-48 36 0 581
c0 652 3 625 -69 625 -26 0 -44 -7 -57 -21 -18 -20 -19 -47 -22 -590 l-2 -569
-50 0 -50 0 2 1028 3 1027 47 3 47 3 3 -314 c3 -293 4 -316 22 -336 13 -14 31
-21 57 -21 69 0 69 2 69 358 l0 313 30 25 c42 36 50 77 50 275 l0 176 171 152
c94 84 175 165 180 179 27 70 -28 142 -107 142 l-44 0 0 246 c0 207 -3 250
-16 272 -16 27 -323 276 -393 319 -57 36 -99 31 -168 -21 -241 -183 -359 -284
-370 -317 -8 -22 -12 -114 -12 -266 l-1 -233 -36 0 c-87 0 -142 -85 -101 -156
7 -12 87 -88 180 -170 152 -136 167 -152 167 -182 0 -18 -3 -31 -7 -29 -5 3
-181 71 -393 152 -212 81 -391 152 -397 159 -7 6 -94 146 -193 310 l-181 299
229 231 c127 127 235 241 241 253 35 69 -17 154 -92 152 -12 0 -203 -62 -424
-138z m59 -264 c-155 -156 -182 -188 -182 -213 0 -20 27 -76 81 -165 45 -74
84 -140 86 -146 4 -10 -11 -13 -56 -13 -48 0 -65 -4 -81 -20 -30 -30 -27 -83
6 -109 23 -18 41 -21 130 -21 l103 0 41 -68 c22 -38 40 -71 40 -75 0 -4 -225
-7 -499 -7 l-500 0 33 73 33 72 171 5 c149 4 173 7 191 24 27 25 28 79 1 106
-18 18 -33 20 -151 20 -128 0 -130 0 -124 21 4 11 56 121 116 244 92 190 113
226 143 244 29 19 565 209 591 210 5 1 -73 -81 -173 -182z m1358 -40 l0 -64
-44 -31 -45 -32 -52 23 -51 22 92 73 c50 39 94 72 96 72 2 0 4 -28 4 -63z
m278 -32 c28 -22 51 -42 52 -46 0 -3 -21 -15 -47 -28 l-46 -22 -41 29 c-40 29
-41 31 -44 97 l-3 67 39 -28 c21 -16 61 -47 90 -69z m-166 -191 l38 -27 0
-163 0 -164 -75 0 -75 0 0 163 0 162 32 27 c18 15 35 28 37 28 3 0 22 -12 43
-26z m-312 -19 l50 -25 0 -155 0 -155 -55 0 -55 0 0 180 c0 99 2 180 5 180 3
0 28 -11 55 -25z m600 -155 l0 -180 -50 0 -50 0 0 155 0 155 48 24 c26 14 48
25 50 26 1 0 2 -81 2 -180z m60 -353 c-14 -13 -68 -62 -121 -110 l-96 -87
-168 0 -168 0 -75 68 c-42 37 -96 86 -121 109 l-46 42 410 1 410 0 -25 -23z
m-1090 -361 l425 -163 3 -42 3 -41 -1577 0 c-868 0 -1575 2 -1573 5 3 2 239
94 525 204 l519 200 625 0 625 1 425 -164z m830 -126 l0 -140 -125 0 -125 0 0
140 0 140 125 0 125 0 0 -140z m-2620 -455 c0 -170 -1 -185 -17 -185 -36 1
-101 39 -129 76 -27 35 -29 43 -29 133 0 84 3 100 23 129 22 30 27 32 88 32
l64 0 0 -185z m332 109 c3 -65 7 -79 27 -95 30 -25 62 -24 95 2 24 19 26 26
26 95 l0 74 96 0 c63 0 93 -4 89 -10 -4 -6 -44 -54 -91 -107 -116 -132 -115
-142 26 -249 l51 -39 -84 -7 c-101 -7 -158 -30 -221 -88 -72 -66 -98 -130
-105 -258 l-6 -107 -32 48 c-17 27 -37 71 -42 98 -7 30 -11 186 -11 384 l0
335 89 0 89 0 4 -76z m668 6 c0 -62 3 -74 25 -95 31 -32 69 -32 100 0 22 21
25 33 25 95 l0 70 90 0 91 0 -3 -362 c-3 -356 -3 -364 -26 -415 -13 -28 -32
-59 -42 -68 -17 -15 -18 -11 -22 87 -5 128 -29 187 -99 253 -74 69 -124 88
-251 93 -104 4 -106 5 -99 26 13 32 -2 59 -58 106 -28 24 -51 47 -51 51 0 4
22 32 50 62 62 68 72 93 54 135 l-13 32 114 0 115 0 0 -70z m622 53 c33 -38
42 -70 42 -143 0 -105 -33 -160 -116 -195 -71 -29 -68 -36 -68 170 l0 185 63
0 c48 0 68 -4 79 -17z m666 -155 l2 -168 -255 0 c-140 0 -255 2 -255 4 0 2 6
19 14 37 28 70 29 210 1 282 -7 16 7 17 241 15 l249 -3 3 -167z m-2361 -335
l73 -18 0 -332 c0 -183 -1 -333 -3 -333 -1 0 -160 158 -352 350 l-350 350 279
0 c232 0 292 -3 353 -17z m2263 14 c0 -1 -160 -162 -355 -357 l-355 -355 0
343 0 342 23 1 c12 0 42 6 67 13 31 10 131 14 333 15 158 0 287 0 287 -2z
m-1204 -86 c23 -10 54 -36 70 -57 28 -36 29 -41 34 -183 6 -166 14 -188 81
-215 47 -19 81 -13 127 21 l33 25 -3 -308 c-3 -307 -3 -309 -29 -369 -24 -57
-542 -877 -557 -882 -12 -5 -544 838 -566 897 -19 50 -21 80 -24 360 -3 296
-3 304 15 288 69 -63 170 -52 209 23 10 20 14 63 14 149 0 163 21 212 105 251
35 16 67 19 245 19 179 0 210 -3 246 -19z m1302 -664 l-3 -215 -245 115 c-135
63 -265 123 -290 134 l-44 20 289 289 290 290 3 -209 c1 -115 1 -306 0 -424z
m-2288 -242 c0 -92 23 -193 59 -269 16 -34 88 -153 159 -265 88 -138 128 -209
122 -216 -18 -22 -107 -64 -165 -80 -40 -10 -106 -15 -204 -15 -135 0 -146 -1
-168 -22 -31 -29 -30 -72 2 -104 25 -25 26 -25 193 -23 l167 2 3 -272 2 -271
-507 2 -508 3 -3 268 -2 267 189 0 c210 0 225 4 237 67 5 26 1 37 -19 57 l-26
26 -286 0 -287 0 4 213 3 212 32 67 c34 73 104 155 162 190 20 13 191 96 381
184 l345 162 58 -56 57 -56 0 -71z m1979 4 l310 -144 1 -231 0 -231 -27 -6
c-78 -16 -143 -102 -143 -189 l0 -48 -378 0 c-307 0 -389 3 -437 15 -58 16
-147 58 -165 80 -6 7 34 79 121 213 71 112 143 230 160 264 38 75 59 169 59
268 l0 74 56 57 56 57 39 -17 c21 -10 178 -82 348 -162z m652 -772 c31 -16 51
-36 67 -67 21 -43 22 -54 22 -305 0 -292 -6 -319 -71 -366 -32 -22 -44 -24
-186 -27 -100 -2 -159 0 -173 8 -31 17 -23 59 15 80 45 25 62 60 46 98 -7 17
-22 34 -32 37 -59 19 -64 66 -10 99 67 43 67 99 1 141 -52 33 -52 57 -1 89 66
42 66 100 0 142 -42 26 -50 52 -23 78 13 13 42 16 158 16 129 0 147 -2 187
-23z m-2091 -269 c115 -183 141 -214 181 -223 60 -13 86 13 209 205 63 99 117
180 120 180 3 -1 30 -16 60 -34 l55 -32 3 -297 2 -297 -425 0 -425 0 0 298 0
297 53 32 c28 18 55 32 58 33 4 0 52 -73 109 -162z m1203 42 l377 0 0 -38 c0
-21 8 -53 18 -72 16 -33 16 -37 0 -70 -22 -44 -23 -107 -2 -160 15 -37 15 -43
0 -80 -9 -22 -16 -58 -16 -80 l0 -40 -400 0 -400 0 0 276 0 276 23 -6 c12 -3
192 -6 400 -6z"/>
<path d="M1947 2453 c-22 -25 -22 -85 1 -106 29 -26 132 -51 212 -51 85 -1
190 26 217 56 22 24 21 73 -3 99 -20 23 -47 23 -156 0 -45 -9 -71 -9 -115 0
-108 22 -137 22 -156 2z"/>
<path d="M4581 5101 c-24 -24 -35 -78 -26 -121 14 -66 81 -91 123 -47 32 34
32 134 -1 165 -29 27 -71 28 -96 3z"/>
<path d="M4387 4908 c-38 -30 -38 -95 1 -124 9 -7 42 -14 73 -14 45 0 59 4 77
23 29 31 29 77 -1 105 -18 17 -36 22 -78 22 -30 0 -63 -6 -72 -12z"/>
<path d="M4727 4908 c-38 -30 -38 -95 1 -124 9 -7 42 -14 73 -14 45 0 59 4 77
23 29 31 29 77 -1 105 -18 17 -36 22 -78 22 -30 0 -63 -6 -72 -12z"/>
<path d="M4581 4761 c-24 -24 -35 -78 -26 -121 14 -66 81 -91 123 -47 32 34
32 134 -1 165 -29 27 -71 28 -96 3z"/>
<path d="M3005 4625 c-21 -20 -25 -34 -25 -80 0 -46 4 -60 25 -80 13 -14 36
-25 50 -25 14 0 37 11 50 25 21 20 25 34 25 80 0 46 -4 60 -25 80 -13 14 -36
25 -50 25 -14 0 -37 -11 -50 -25z"/>
<path d="M2805 4425 c-14 -13 -25 -36 -25 -50 0 -14 11 -37 25 -50 20 -21 34
-25 80 -25 46 0 60 4 80 25 14 13 25 36 25 50 0 14 -11 37 -25 50 -20 21 -34
25 -80 25 -46 0 -60 -4 -80 -25z"/>
<path d="M3145 4425 c-14 -13 -25 -36 -25 -50 0 -14 11 -37 25 -50 20 -21 34
-25 80 -25 46 0 60 4 80 25 14 13 25 36 25 50 0 14 -11 37 -25 50 -20 21 -34
25 -80 25 -46 0 -60 -4 -80 -25z"/>
<path d="M3005 4285 c-21 -20 -25 -34 -25 -80 0 -46 4 -60 25 -80 13 -14 36
-25 50 -25 14 0 37 11 50 25 21 20 25 34 25 80 0 46 -4 60 -25 80 -13 14 -36
25 -50 25 -14 0 -37 -11 -50 -25z"/>
</g>
</svg>
